<?xml version="1.0" standalone="no"?>
<!DOCTYPE svg PUBLIC "-//W3C//DTD SVG 20010904//EN"
 "http://www.w3.org/TR/2001/REC-SVG-20010904/DTD/svg10.dtd">
<svg version="1.0" xmlns="http://www.w3.org/2000/svg"
 width="500.000000pt" height="500.000000pt" viewBox="0 0 500.000000 500.000000"
 preserveAspectRatio="xMidYMid meet">
<metadata>
Created by potrace 1.14, written by Peter Selinger 2001-2017
</metadata>
<g transform="translate(0.000000,500.000000) scale(0.100000,-0.100000)"
fill="#000000" stroke="none">
<path d="M2837 4294 c-303 -305 -871 -876 -1261 -1267 -390 -392 -715 -721
-722 -732 -16 -25 -8 -62 16 -70 16 -5 388 -10 1193 -17 325 -2 348 -5 334
-41 -3 -9 -657 -998 -826 -1251 -14 -21 -34 -50 -43 -65 -10 -14 -22 -33 -28
-41 -237 -354 -391 -592 -394 -611 -5 -31 10 -49 39 -49 27 0 67 32 235 189
68 64 136 127 151 141 15 14 76 71 135 127 60 56 120 111 134 123 28 24 173
158 313 290 50 47 105 98 121 113 49 46 207 190 226 207 15 13 88 81 269 249
20 18 68 63 107 100 38 36 130 122 204 191 74 69 161 151 195 182 33 31 74 69
90 84 31 28 210 193 276 254 21 19 68 62 104 95 37 33 95 87 130 120 35 33
122 115 193 182 99 94 130 128 130 148 0 13 -6 29 -13 35 -8 6 -166 12 -426
15 -684 7 -1103 17 -1116 24 -9 5 47 126 190 416 112 226 209 425 216 443 8
17 18 32 24 32 6 0 8 2 5 5 -3 4 90 198 207 433 117 235 214 439 216 452 5 35
-8 50 -42 50 -26 0 -100 -71 -582 -556z"/>
</g>
</svg>
